<?xml version="1.0" encoding="utf-8"?>
<!-- Generator: Adobe Illustrator 18.1.1, SVG Export Plug-In . SVG Version: 6.00 Build 0)  -->
<!DOCTYPE svg PUBLIC "-//W3C//DTD SVG 1.1//EN" "http://www.w3.org/Graphics/SVG/1.1/DTD/svg11.dtd">
<svg version="1.1" id="Layer_1" xmlns="http://www.w3.org/2000/svg" xmlns:xlink="http://www.w3.org/1999/xlink" x="0px" y="0px"
	 viewBox="0 0 60 60" enable-background="new 0 0 60 60" xml:space="preserve">
<g>
	<g>
		<path fill="#79CEEC" d="M5,11.8L5,11.8c4.1,0,7.5,3.3,7.5,7.5v17c0,1.6,1.3,2.8,2.8,2.8h29c4.5,0,8.1,3.6,8.1,8.1l-3,0l-40.2,0
			c-2.3,0-4.1-1.9-4.1-4.1C5.1,35.3,5.1,11.6,5,11.8z"/>
	</g>
	<g>
		<path fill="#4D4D4D" d="M30.1,51.3c-0.3,0-0.7-0.1-1-0.3l-2.2-1.8c-1-0.8-2.2-1.3-3.5-1.3H5.2c-0.8,0-1.5-0.7-1.5-1.5V10.2
			c0-0.8,0.7-1.5,1.5-1.5h16.5c5.5,0,9.9,4.5,9.9,9.9v31.1c0,0.6-0.3,1.1-0.9,1.4C30.5,51.2,30.3,51.3,30.1,51.3z M6.7,44.9h16.8
			c1.8,0,3.6,0.6,5.1,1.7V18.7c0-3.8-3.1-6.9-6.9-6.9h-15V44.9z"/>
	</g>
	<g>
		<path fill="#4D4D4D" d="M30.1,51.3c-0.2,0-0.4,0-0.6-0.1c-0.5-0.2-0.9-0.8-0.9-1.4V18.7c0-5.5,4.5-9.9,9.9-9.9H55
			c0.8,0,1.5,0.7,1.5,1.5v36.2c0,0.8-0.7,1.5-1.5,1.5H36.7c-1.3,0-2.5,0.4-3.5,1.3l-2.2,1.8C30.8,51.2,30.4,51.3,30.1,51.3z
			 M38.5,11.7c-3.8,0-6.9,3.1-6.9,6.9v27.9c1.5-1.1,3.3-1.7,5.1-1.7h16.8V11.7H38.5z"/>
	</g>
	<g>
		<path fill="#4D4D4D" d="M48.9,26.2H38c-0.8,0-1.5-0.7-1.5-1.5s0.7-1.5,1.5-1.5h10.9c0.8,0,1.5,0.7,1.5,1.5S49.7,26.2,48.9,26.2z"
			/>
	</g>
	<g>
		<path fill="#4D4D4D" d="M48.9,34.1H38c-0.8,0-1.5-0.7-1.5-1.5s0.7-1.5,1.5-1.5h10.9c0.8,0,1.5,0.7,1.5,1.5S49.7,34.1,48.9,34.1z"
			/>
	</g>
</g>
</svg>
