<?xml version="1.0" encoding="utf-8"?>
<!-- Generator: Adobe Illustrator 19.2.1, SVG Export Plug-In . SVG Version: 6.00 Build 0)  -->
<svg version="1.1" id="Layer_1" xmlns="http://www.w3.org/2000/svg" xmlns:xlink="http://www.w3.org/1999/xlink" x="0px" y="0px"
	 viewBox="0 0 52 52" enable-background="new 0 0 52 52" xml:space="preserve">
<g id="Layer_5">
	<g>
		<g>
			<path fill="#77CFED" d="M14.9,48.5c-0.8,0-1.6-0.3-2.2-0.9c-1.1-1.2-1.1-3.1,0.1-4.2l8.1-7.7c0.6-0.5,1.3-0.8,2.1-0.8
				c8.8,0,15.9-7.1,15.9-15.9c0-1.7,1.3-3,3-3s3,1.3,3,3c0,11.6-9.2,21.2-20.6,21.8L17,47.7C16.4,48.2,15.6,48.5,14.9,48.5z"/>
		</g>
		<g id="XMLID_65_">
			<path fill="#4C4C4C" d="M25.9,3c4.8,0,9.4,1.9,12.9,5.3s5.4,7.9,5.4,12.7c0,10-8.2,18.2-18.2,18.2h-1c-0.7,0-1.4,0.3-2,0.8
				l-8.2,7.2l0.1-10.3c0-0.8-0.3-1.6-0.9-2.1L13.1,34c-3.4-3.5-5.3-8.1-5.3-12.9C7.8,11.1,16,3,25.9,3 M25.9,0
				C14.3,0,4.8,9.5,4.8,21.1c0,5.6,2.2,10.9,6.1,15c0.3,0.3,0.5,0.5,0.8,0.8l-0.1,13.5c0,0.6,0.3,1.1,0.9,1.5
				c0.2,0.1,0.4,0.1,0.6,0.1c0.4,0,0.7-0.1,1-0.4l10.6-9.4c0.3,0,0.7,0,1,0c11.6,0,21.2-9.5,21.2-21.2C47.2,9.5,37.6,0,25.9,0
				L25.9,0z"/>
		</g>
	</g>
</g>
</svg>
