<?xml version="1.0" encoding="utf-8"?>
<!-- Generator: Adobe Illustrator 19.2.1, SVG Export Plug-In . SVG Version: 6.00 Build 0)  -->
<svg version="1.1" id="Layer_1" xmlns="http://www.w3.org/2000/svg" xmlns:xlink="http://www.w3.org/1999/xlink" x="0px" y="0px"
	 viewBox="0 0 52 52" enable-background="new 0 0 52 52" xml:space="preserve">
<g id="Layer_8">
	<g>
		<g id="XMLID_243_">
			<path fill="#77CFED" d="M28.2,17.6"/>
		</g>
		<g id="XMLID_22_">
			<path fill="#77CFED" d="M39.6,25.3"/>
		</g>
		<g id="XMLID_246_">
			<path fill="#77CFED" d="M3.3,34h30.8c4.7,0,8.6,4,8.5,9h-0.8H10.1l-6-4.4L3.3,34z"/>
		</g>
		<g id="XMLID_1_">
			<g id="XMLID_21_">
				<path fill="#4C4C4C" d="M15.1,44.5c-3.3,0-6.2-0.2-9.2-2.2c-3.6-2.5-5.8-6.6-5.8-10.8c0-6.9,5.6-12.6,12.6-12.6
					c1.1,0,2.2,0.1,3.3,0.4c0.7-6.5,6.1-11.5,12.8-11.5c7.1,0,12.9,5.8,12.9,12.9c0,0.8-0.1,1.6-0.2,2.4C47.3,23.2,52,27.9,52,33.7
					c0,6.9-5.3,10.8-14.5,10.8c-6.9,0-13.9,0-20.8,0L15.1,44.5z M12.7,21.9c-5.3,0-9.6,4.3-9.6,9.6c0,3.2,1.7,6.4,4.5,8.3
					c2.2,1.6,4.6,1.7,7.4,1.7h1.4c6.9,0,13.9,0,20.8,0c5.3,0,11.5-1.4,11.5-7.8c0-4.2-3.4-7.6-7.6-7.6c-0.5,0-1.1,0.1-1.6,0.2
					s-1.1-0.1-1.5-0.5s-0.5-1-0.3-1.5c0.4-1.1,0.7-2.3,0.7-3.5c0-5.4-4.4-9.9-9.9-9.9s-9.9,4.4-9.9,9.9c0,0.2,0,0.4,0,0.6
					c0,0.5-0.2,1.1-0.6,1.4s-1,0.4-1.5,0.2C15.5,22.2,14.1,21.9,12.7,21.9z"/>
			</g>
			<g id="XMLID_20_">
				<path fill="#4C4C4C" d="M21.6,27.7c-0.6,0-1.1-0.3-1.4-0.9c-1.4-3-4.4-4.3-4.5-4.4c-0.8-0.3-1.1-1.2-0.8-2s1.2-1.1,2-0.8
					c0.2,0.1,4.2,1.8,6.1,5.9c0.3,0.8,0,1.6-0.8,2C22,27.6,21.8,27.7,21.6,27.7z"/>
			</g>
		</g>
	</g>
</g>
</svg>
