<svg id="Layer_1" data-name="Layer 1" xmlns="http://www.w3.org/2000/svg" viewBox="0 0 52 52"><defs><style>.cls-1{fill:none;stroke:#4e4c4d;stroke-linecap:round;stroke-linejoin:round;stroke-width:3px;}.cls-2{fill:#79cdeb;}.cls-3{fill:#4e4c4d;}</style></defs><title>Artboard 1</title><path id="_Path_" data-name="&lt;Path&gt;" class="cls-1" d="M14.6,14.77V6.36a1.64,1.64,0,0,1,1.64-1.64H47.6a1.64,1.64,0,0,1,1.64,1.64V30.24a1.64,1.64,0,0,1-1.64,1.64H43.07"/><line id="_Path_2" data-name="&lt;Path&gt;" class="cls-1" x1="14.6" y1="12.51" x2="49.24" y2="12.51"/><g id="_Group_" data-name="&lt;Group&gt;"><path id="_Path_3" data-name="&lt;Path&gt;" class="cls-2" d="M31.31,46.61l-26.62,0L3.51,45V28.77h0a3.54,3.54,0,0,1,3.61,3.54v9.12a1.79,1.79,0,0,0,1.79,1.79H30.06a3.35,3.35,0,0,1,3.35,3.35H31"/></g><g id="_Group_2" data-name="&lt;Group&gt;"><g id="_Group_3" data-name="&lt;Group&gt;"><rect id="_Rectangle_" data-name="&lt;Rectangle&gt;" class="cls-1" x="2.76" y="20.12" width="34.64" height="27.16" rx="2" ry="2"/><circle id="_Path_4" data-name="&lt;Path&gt;" class="cls-3" cx="7.09" cy="23.98" r="1.5"/><circle id="_Path_5" data-name="&lt;Path&gt;" class="cls-3" cx="12.04" cy="23.98" r="1.5"/><circle id="_Path_6" data-name="&lt;Path&gt;" class="cls-3" cx="17" cy="23.98" r="1.5"/><line id="_Path_7" data-name="&lt;Path&gt;" class="cls-1" x1="2.76" y1="27.9" x2="37.4" y2="27.9"/></g></g></svg>