<?xml version="1.0" encoding="utf-8"?>
<!-- Generator: Adobe Illustrator 18.1.1, SVG Export Plug-In . SVG Version: 6.00 Build 0)  -->
<!DOCTYPE svg PUBLIC "-//W3C//DTD SVG 1.1//EN" "http://www.w3.org/Graphics/SVG/1.1/DTD/svg11.dtd">
<svg version="1.1" id="Layer_1" xmlns="http://www.w3.org/2000/svg" xmlns:xlink="http://www.w3.org/1999/xlink" x="0px" y="0px"
	 viewBox="0 0 60 60" enable-background="new 0 0 60 60" xml:space="preserve">
<g>
	<g>
		<path fill="#FFFFFF" d="M52,48.6H8.6c-2.2,0-4-1.8-4-4V13.8c0-2.2,1.8-4,4-4H52c2.2,0,4,1.8,4,4v30.8C56,46.8,54.2,48.6,52,48.6z"
			/>
		<path fill="#4D4D4D" d="M52,50.1H8.6c-3,0-5.5-2.5-5.5-5.5V13.8c0-3,2.5-5.5,5.5-5.5H52c3,0,5.5,2.5,5.5,5.5v30.8
			C57.5,47.6,55,50.1,52,50.1z M8.6,11.3c-1.4,0-2.5,1.1-2.5,2.5v30.8c0,1.4,1.1,2.5,2.5,2.5H52c1.4,0,2.5-1.1,2.5-2.5V13.8
			c0-1.4-1.1-2.5-2.5-2.5H8.6z"/>
	</g>
	<g>
		<path fill="#79CEEC" d="M4,29.7L4,29.7c4.5,0,8.2,3.7,8.2,8.2v0c0,1.9,1.5,3.4,3.4,3.4H44c5,0,9,4,9,9v0l-44.3,0
			c-2.5,0-4.6-2-4.6-4.6C4.2,37,4.2,29.5,4,29.7z"/>
	</g>
	<g>
		<g>
			<g>
				<path fill="#4D4D4D" d="M21.8,36.8c-0.4,0-0.8-0.1-1.1-0.4l-6.1-6.1c-0.6-0.6-0.6-1.5,0-2.1c0.6-0.6,1.5-0.6,2.1,0l6.1,6.1
					c0.6,0.6,0.6,1.5,0,2.1C22.6,36.6,22.2,36.8,21.8,36.8z"/>
			</g>
			<g>
				<path fill="#4D4D4D" d="M15.7,30.4c-0.4,0-0.8-0.1-1.1-0.4c-0.6-0.6-0.6-1.5,0-2.1l6.1-6.1c0.6-0.6,1.5-0.6,2.1,0
					c0.6,0.6,0.6,1.5,0,2.1L16.8,30C16.5,30.3,16.1,30.4,15.7,30.4z"/>
			</g>
		</g>
		<g>
			<g>
				<path fill="#4D4D4D" d="M44.3,30.4c-0.4,0-0.8-0.1-1.1-0.4l-6.1-6.1c-0.6-0.6-0.6-1.5,0-2.1c0.6-0.6,1.5-0.6,2.1,0l6.1,6.1
					c0.6,0.6,0.6,1.5,0,2.1C45.1,30.3,44.7,30.4,44.3,30.4z"/>
			</g>
			<g>
				<path fill="#4D4D4D" d="M38.2,36.8c-0.4,0-0.8-0.1-1.1-0.4c-0.6-0.6-0.6-1.5,0-2.1l6.1-6.1c0.6-0.6,1.5-0.6,2.1,0
					c0.6,0.6,0.6,1.5,0,2.1l-6.1,6.1C39,36.6,38.6,36.8,38.2,36.8z"/>
			</g>
		</g>
		<g>
			<path fill="#4D4D4D" d="M27.5,38c-0.2,0-0.3,0-0.5-0.1c-0.8-0.3-1.2-1.1-1-1.9l4.8-14.9c0.3-0.8,1.1-1.2,1.9-1
				c0.8,0.3,1.2,1.1,1,1.9L29,37C28.7,37.6,28.2,38,27.5,38z"/>
		</g>
	</g>
	<g>
		<path fill="#4D4D4D" d="M52,50.1H8.6c-3,0-5.5-2.5-5.5-5.5V13.8c0-3,2.5-5.5,5.5-5.5H52c3,0,5.5,2.5,5.5,5.5v30.8
			C57.5,47.6,55,50.1,52,50.1z M8.6,11.3c-1.4,0-2.5,1.1-2.5,2.5v30.8c0,1.4,1.1,2.5,2.5,2.5H52c1.4,0,2.5-1.1,2.5-2.5V13.8
			c0-1.4-1.1-2.5-2.5-2.5H8.6z"/>
	</g>
</g>
</svg>
