<?xml version="1.0" encoding="utf-8"?>
<!-- Generator: Adobe Illustrator 19.2.1, SVG Export Plug-In . SVG Version: 6.00 Build 0)  -->
<svg version="1.1" id="Layer_1" xmlns="http://www.w3.org/2000/svg" xmlns:xlink="http://www.w3.org/1999/xlink" x="0px" y="0px"
	 viewBox="0 0 52 52" enable-background="new 0 0 52 52" xml:space="preserve">
<g id="Layer_6">
	<g>
		<path fill="#4C4C4C" d="M35.7,31.3c-0.8,0-1.5-0.7-1.5-1.5s0.7-1.5,1.5-1.5c4.5,0,8.2-3.6,8.2-8.1s-3.7-8.1-8.2-8.1
			s-8.2,3.6-8.2,8.1c0,0.8-0.7,1.5-1.5,1.5s-1.5-0.7-1.5-1.5c0-6.1,5-11.1,11.2-11.1s11.2,5,11.2,11.1S41.9,31.3,35.7,31.3z"/>
	</g>
	<g>
		<path fill="#FFFFFF" d="M35.7,29.8c-5.4,0-9.7-4.3-9.7-9.6"/>
		<path fill="#4C4C4C" d="M35.7,31.3c-6.2,0-11.2-5-11.2-11.1c0-0.8,0.7-1.5,1.5-1.5s1.5,0.7,1.5,1.5c0,4.5,3.7,8.1,8.2,8.1
			c0.8,0,1.5,0.7,1.5,1.5S36.5,31.3,35.7,31.3z"/>
	</g>
	<g>
		<path fill="#77CFED" d="M36.7,30.8c-6.4,0-11.7-5.2-11.7-11.6c0-1.7,1.3-3,3-3s3,1.3,3,3c0,3.1,2.6,5.6,5.7,5.6c1.7,0,3,1.3,3,3
			S38.3,30.8,36.7,30.8z"/>
	</g>
	<path fill="#4C4C4C" d="M50.5,18.2h-3.8c-0.3-1.9-1.2-3.6-2.3-5l2.8-2.8c0.6-0.6,0.6-1.5,0-2.1s-1.5-0.6-2.1,0l-2.9,2.9
		c-1.4-1-3.1-1.7-5-1.9V5.1c0-0.8-0.7-1.5-1.5-1.5s-1.5,0.7-1.5,1.5v4.1c-1.8,0.2-3.5,0.9-5,1.9l-2.9-2.9c-0.6-0.6-1.5-0.6-2.1,0
		s-0.6,1.5,0,2.1l2.8,2.8c-1.2,1.4-2,3.1-2.3,5h-3.8c-0.8,0-1.5,0.7-1.5,1.5s0.7,1.5,1.5,1.5h3.6c0.2,2,0.9,3.9,2.1,5.5
		c-0.1,0.1-0.2,0.1-0.3,0.2l-2.1,2.1c-0.6,0.6-0.6,1.5,0,2.1c0.3,0.3,0.7,0.4,1.1,0.4s0.8-0.1,1.1-0.4l2.1-2.1
		c0.1-0.1,0.1-0.1,0.1-0.2c1.6,1.3,3.5,2.1,5.6,2.4v3.1c0,0.8,0.7,1.5,1.5,1.5s1.5-0.7,1.5-1.5v-3.1c2.1-0.3,4-1.1,5.6-2.4l2.3,2.3
		c0.3,0.3,0.7,0.4,1.1,0.4c0.4,0,0.8-0.1,1.1-0.4c0.6-0.6,0.6-1.5,0-2.1l-2.4-2.3c1.1-1.6,1.8-3.4,2-5.4h3.6c0.8,0,1.5-0.7,1.5-1.5
		S51.3,18.2,50.5,18.2z M35.7,28.3c-4.5,0-8.2-3.6-8.2-8.1s3.7-8.1,8.2-8.1s8.2,3.6,8.2,8.1C43.9,24.6,40.2,28.3,35.7,28.3z"/>
	<g>
		<path fill="#4C4C4C" d="M5.3,44.9c-0.4,0-0.8-0.1-1.1-0.4c-0.6-0.6-0.6-1.5,0-2.1l1.9-1.9c0.6-0.6,1.5-0.6,2.1,0s0.6,1.5,0,2.1
			l-1.9,1.9C6.1,44.7,5.7,44.9,5.3,44.9z"/>
	</g>
	<g>
		<path fill="#4C4C4C" d="M19.6,30.6c-0.4,0-0.8-0.1-1.1-0.4c-0.6-0.6-0.6-1.5,0-2.1l3.3-3.3c0.6-0.6,1.5-0.6,2.1,0s0.6,1.5,0,2.1
			l-3.3,3.3C20.4,30.5,20,30.6,19.6,30.6z"/>
	</g>
	<g>
		<path fill="#4C4C4C" d="M8.4,30.3c-0.4,0-0.8-0.1-1.1-0.4l-3.1-3.1c-0.6-0.6-0.6-1.5,0-2.1s1.5-0.6,2.1,0l3.1,3.1
			c0.6,0.6,0.6,1.5,0,2.1C9.1,30.2,8.7,30.3,8.4,30.3z"/>
	</g>
	<g>
		<path fill="#4C4C4C" d="M23,45c-0.4,0-0.8-0.1-1.1-0.4L19.3,42c-0.6-0.6-0.6-1.5,0-2.1s1.5-0.6,2.1,0l2.6,2.6
			c0.6,0.6,0.6,1.5,0,2.1C23.8,44.8,23.4,45,23,45z"/>
	</g>
	<g>
		<path fill="#4C4C4C" d="M5.5,36L5.5,36H1.6c-0.8,0-1.5-0.7-1.5-1.5S0.8,33,1.6,33l0,0h3.9C6.4,33,7,33.7,7,34.5
			C7,35.4,6.4,36,5.5,36z"/>
	</g>
	<g>
		<path fill="#4C4C4C" d="M26.6,36.1L26.6,36.1h-4.3c-0.8,0-1.5-0.7-1.5-1.5s0.7-1.5,1.5-1.5l0,0h4.3c0.8,0,1.5,0.7,1.5,1.5
			C28.1,35.5,27.4,36.1,26.6,36.1z"/>
	</g>
	<g>
		<path fill="#4C4C4C" d="M14.1,28c-0.8,0-1.5-0.7-1.5-1.5v-4.4c0-0.8,0.7-1.5,1.5-1.5l0,0c0.8,0,1.5,0.7,1.5,1.5v4.4
			C15.6,27.3,14.9,28,14.1,28L14.1,28z"/>
	</g>
	<g>
		<path fill="#4C4C4C" d="M14.2,48.6c-0.8,0-1.5-0.7-1.5-1.5V44c0-0.8,0.7-1.5,1.5-1.5l0,0c0.8,0,1.5,0.7,1.5,1.5v3.1
			C15.7,47.9,15,48.6,14.2,48.6L14.2,48.6z"/>
	</g>
	<g>
		<path fill="#4C4C4C" d="M13.9,44.6c-2.5,0-5-1-6.9-2.9c-0.6-0.6-0.6-1.5,0-2.1s1.5-0.6,2.1,0c2.6,2.6,6.9,2.7,9.5,0.1
			c1.3-1.3,1.9-2.9,1.9-4.7s-0.7-3.5-2-4.8s-3-2-4.8-2s-3.5,0.7-4.7,1.9c-0.6,0.6-1.5,0.6-2.1,0s-0.6-1.5,0-2.1
			c1.8-1.8,4.2-2.8,6.8-2.8c0,0,0,0,0.1,0c2.6,0,5,1,6.9,2.9c1.8,1.8,2.9,4.3,2.9,6.9s-1,5-2.8,6.9C18.8,43.6,16.4,44.6,13.9,44.6z"
			/>
	</g>
	<g>
		<path fill="#FFFFFF" d="M8,40.6C4.8,37.4,4.8,32.2,8,29"/>
		<path fill="#4C4C4C" d="M8,42.1c-0.4,0-0.8-0.1-1.1-0.4c-3.8-3.8-3.8-10-0.1-13.7c0.6-0.6,1.5-0.6,2.1,0c0.6,0.6,0.6,1.5,0,2.1
			C6.3,32.7,6.3,37,9,39.6c0.6,0.6,0.6,1.5,0,2.1C8.8,42,8.4,42.1,8,42.1z"/>
	</g>
	<g>
		<path fill="#77CFED" d="M9.9,43c-0.8,0-1.5-0.3-2.1-0.9C3.7,38,3.7,31.5,7.7,27.5c1.2-1.2,3.1-1.2,4.2,0c1.2,1.2,1.2,3.1,0,4.2
			c-1.7,1.7-1.6,4.4,0.1,6.2c1.2,1.2,1.2,3.1,0,4.2C11.4,42.8,10.6,43,9.9,43z"/>
	</g>
	<path fill="#4C4C4C" d="M20.6,28c-1.8-1.8-4.3-2.9-6.9-2.9c0,0,0,0-0.1,0c-2.6,0-5,1-6.8,2.8c-3.6,3.8-3.6,10,0.2,13.8
		c1.9,1.9,4.4,2.9,6.9,2.9s4.9-0.9,6.8-2.8c1.8-1.8,2.8-4.3,2.8-6.9S22.5,29.9,20.6,28z M18.6,39.7c-2.6,2.6-6.9,2.6-9.5-0.1
		C6.5,37,6.4,32.7,9,30.1c1.3-1.3,2.9-1.9,4.7-1.9s3.5,0.7,4.8,2s2,3,2,4.8C20.5,36.7,19.8,38.4,18.6,39.7z"/>
</g>
</svg>
