<?xml version="1.0" encoding="utf-8"?>
<!-- Generator: Adobe Illustrator 19.2.1, SVG Export Plug-In . SVG Version: 6.00 Build 0)  -->
<svg version="1.1" id="Layer_17" xmlns="http://www.w3.org/2000/svg" xmlns:xlink="http://www.w3.org/1999/xlink" x="0px" y="0px"
	 viewBox="0 0 51 47" style="enable-background:new 0 0 51 47;" xml:space="preserve">
<style type="text/css">
	.st0{fill:none;stroke:#4D4C4D;stroke-width:3;stroke-linecap:round;stroke-linejoin:round;stroke-miterlimit:10;}
	.st1{fill:#79CDEB;}
	.st2{fill:#4D4C4D;}
</style>
<title>Cobrowse</title>
<g>
	<path class="st0" d="M25.6,19.4"/>
</g>
<g id="XMLID_451_">
	<g id="XMLID_452_">
		<path class="st1" d="M46,26.7l-42.7,0l-1.6-2.1V3l0,0c2.6,0,4.8,2.1,4.8,4.7v12.1c0,1.3,1.1,2.4,2.4,2.4h35.5c2.5,0,4.4,2,4.4,4.4
			l-3.2,0"/>
	</g>
</g>
<path class="st2" d="M45.5-0.1H5.6c-3,0-5.5,2.5-5.5,5.5v27.4c0,3,2.5,5.5,5.5,5.5H24v5.5H10.1c-0.8,0-1.5,0.7-1.5,1.5
	s0.7,1.5,1.5,1.5H41c0.8,0,1.5-0.7,1.5-1.5s-0.7-1.5-1.5-1.5H27v-5.5h18.5c3,0,5.5-2.5,5.5-5.5V5.4C51,2.3,48.6-0.1,45.5-0.1z
	 M5.6,2.9h39.9C46.9,2.9,48,4,48,5.4v20.4H3.1V5.4C3.1,4,4.2,2.9,5.6,2.9z M45.5,35.3H5.6c-1.4,0-2.5-1.1-2.5-2.5v-4H48v4
	C48,34.2,46.9,35.3,45.5,35.3z"/>
<path class="st2" d="M39,11.9l-4.6-4.6c-0.6-0.6-1.5-0.6-2.1,0s-0.6,1.5,0,2.1l2.3,2.3H13.2c-0.8,0-1.5,0.7-1.5,1.5s0.7,1.5,1.5,1.5
	h21.3l-2.1,2.1c-0.6,0.6-0.6,1.5,0,2.1c0.3,0.3,0.7,0.4,1.1,0.4s0.8-0.1,1.1-0.4l4.6-4.6c0.3-0.3,0.5-0.8,0.4-1.2
	C39.5,12.7,39.4,12.3,39,11.9z"/>
</svg>
